<svg width="420" height="90" viewBox="0 0 420 90" fill="none" xmlns="http://www.w3.org/2000/svg">
<g clip-path="url(#clip0_130_9)">
<path d="M59.7107 65.0395L71.3774 44.8323C71.888 43.9458 72.1565 42.9407 72.1559 41.9178C72.1554 40.8948 71.8859 39.89 71.3744 39.0041L59.5264 18.6922C59.0144 17.8054 58.278 17.069 57.3912 16.557C56.5045 16.045 55.4985 15.7755 54.4746 15.7755L30.9599 15.6708C29.9369 15.6708 28.932 15.9398 28.0458 16.4508C27.1597 16.9618 26.4235 17.6969 25.9111 18.5823L14.2444 38.7895C13.7338 39.676 13.4653 40.6811 13.4659 41.704C13.4664 42.727 13.7359 43.7318 14.2474 44.6177L26.0954 64.9297C26.6074 65.8164 27.3438 66.5528 28.2306 67.0648C29.1173 67.5768 30.1233 67.8463 31.1472 67.8463L54.6619 67.951C55.6849 67.951 56.6898 67.682 57.576 67.171C58.4622 66.66 59.1984 65.9249 59.7107 65.0395Z" stroke="#6750A4" stroke-opacity="0.16" stroke-width="4" stroke-linecap="round" stroke-linejoin="round"/>
</g>
<path d="M26.7284 30.92L27.8884 31L27.4484 49.92C27.4218 51.36 27.7018 52.4933 28.2884 53.32C28.9018 54.12 29.7551 54.52 30.8484 54.52C30.9284 54.52 30.9684 54.6 30.9684 54.76C30.9684 54.92 30.9284 55 30.8484 55C30.1284 55 29.5684 54.9867 29.1684 54.96L26.9684 54.92L24.4484 54.96C24.0218 54.9867 23.4484 55 22.7284 55C22.6484 55 22.6084 54.92 22.6084 54.76C22.6084 54.6 22.6484 54.52 22.7284 54.52C23.8218 54.52 24.6884 54.1067 25.3284 53.28C25.9684 52.4533 26.3018 51.3333 26.3284 49.92L26.7284 30.92ZM54.9684 54.52C55.0218 54.52 55.0484 54.6 55.0484 54.76C55.0484 54.92 55.0218 55 54.9684 55C54.0618 55 53.3418 54.9867 52.8084 54.96L49.8484 54.92L46.8484 54.96C46.3418 54.9867 45.6484 55 44.7684 55C44.6884 55 44.6484 54.92 44.6484 54.76C44.6484 54.6 44.6884 54.52 44.7684 54.52C45.6218 54.52 46.2484 54.4533 46.6484 54.32C47.0751 54.16 47.3551 53.8933 47.4884 53.52C47.6218 53.1467 47.6618 52.56 47.6084 51.76L46.6884 34L48.7284 30.8L38.5284 54.72C38.4751 54.8267 38.3684 54.88 38.2084 54.88C38.0484 54.88 37.9418 54.8267 37.8884 54.72L26.6484 33.32C26.1151 32.3333 25.5551 31.6133 24.9684 31.16C24.4084 30.7067 23.7551 30.48 23.0084 30.48C22.9284 30.48 22.8884 30.4 22.8884 30.24C22.8884 30.08 22.9284 30 23.0084 30L24.8884 30.04C25.2618 30.0667 25.7418 30.08 26.3284 30.08L28.4484 30.04C28.6884 30.0133 28.9951 30 29.3684 30C29.7151 30 29.9818 30.12 30.1684 30.36C30.3551 30.6 30.7018 31.1733 31.2084 32.08L40.1684 48.88L38.1684 52.48L47.5284 31C47.6884 30.6267 47.8484 30.3733 48.0084 30.24C48.1951 30.08 48.4351 30 48.7284 30C48.9684 30 49.2351 30.0133 49.5284 30.04C49.8484 30.0667 50.2084 30.08 50.6084 30.08L52.9684 30.04C53.3418 30.0133 53.8751 30 54.5684 30C54.6484 30 54.6884 30.08 54.6884 30.24C54.6884 30.4 54.6484 30.48 54.5684 30.48C53.3151 30.48 52.4084 30.7333 51.8484 31.24C51.2884 31.7467 51.0351 32.5333 51.0884 33.6L52.0484 51.76C52.1018 52.5867 52.1951 53.1867 52.3284 53.56C52.4884 53.9333 52.7551 54.1867 53.1284 54.32C53.5284 54.4533 54.1418 54.52 54.9684 54.52ZM78.7853 35.12C78.7853 33.68 78.452 32.5467 77.7853 31.72C77.1453 30.8933 76.2386 30.48 75.0653 30.48C75.012 30.48 74.9853 30.4 74.9853 30.24C74.9853 30.08 75.012 30 75.0653 30L76.9853 30.04C77.9986 30.0933 78.812 30.12 79.4253 30.12C79.932 30.12 80.6653 30.0933 81.6253 30.04L83.4653 30C83.5186 30 83.5453 30.08 83.5453 30.24C83.5453 30.4 83.5186 30.48 83.4653 30.48C82.4253 30.48 81.612 30.8933 81.0253 31.72C80.4386 32.5467 80.1453 33.68 80.1453 35.12V46.24C80.1453 48.1067 79.732 49.7467 78.9053 51.16C78.0786 52.5733 76.9053 53.6667 75.3853 54.44C73.892 55.1867 72.1586 55.56 70.1853 55.56C68.212 55.56 66.4653 55.1867 64.9453 54.44C63.4253 53.6933 62.2253 52.6133 61.3453 51.2C60.492 49.76 60.0653 48.08 60.0653 46.16V33.24C60.0653 32.44 59.9853 31.8533 59.8253 31.48C59.692 31.1067 59.4253 30.8533 59.0253 30.72C58.652 30.56 58.052 30.48 57.2253 30.48C57.1453 30.48 57.1053 30.4 57.1053 30.24C57.1053 30.08 57.1453 30 57.2253 30L59.3453 30.04C60.572 30.0933 61.5453 30.12 62.2653 30.12C63.0653 30.12 64.0786 30.0933 65.3053 30.04L67.3453 30C67.4253 30 67.4653 30.08 67.4653 30.24C67.4653 30.4 67.4253 30.48 67.3453 30.48C66.5186 30.48 65.9053 30.56 65.5053 30.72C65.132 30.88 64.8653 31.16 64.7053 31.56C64.572 31.9333 64.5053 32.52 64.5053 33.32V44.76C64.5053 47.9333 65.132 50.28 66.3853 51.8C67.6386 53.32 69.412 54.08 71.7053 54.08C73.9186 54.08 75.652 53.4133 76.9053 52.08C78.1586 50.72 78.7853 48.7867 78.7853 46.28V35.12Z" fill="#6750A4"/>
<path d="M90.5616 34.04C90.5616 35 90.8016 35.8533 91.2816 36.6C91.7882 37.3467 92.4016 38 93.1216 38.56C93.8416 39.12 94.8149 39.8 96.0416 40.6C97.3749 41.4533 98.4416 42.2 99.2416 42.84C100.042 43.48 100.722 44.2667 101.282 45.2C101.842 46.1067 102.122 47.16 102.122 48.36C102.122 49.7467 101.748 50.9867 101.002 52.08C100.255 53.1467 99.2149 53.9867 97.8816 54.6C96.5749 55.1867 95.1082 55.48 93.4816 55.48C92.3082 55.48 91.0549 55.32 89.7216 55C88.4149 54.6533 87.5349 54.28 87.0816 53.88C86.9482 53.7733 86.8416 53.68 86.7616 53.6C86.7082 53.4933 86.6816 53.3333 86.6816 53.12L86.5616 46.76V46.72C86.5616 46.6133 86.6282 46.56 86.7616 46.56C86.8949 46.5333 86.9749 46.5733 87.0016 46.68C87.8016 48.3067 88.4949 49.6267 89.0816 50.64C89.6949 51.6533 90.4549 52.5467 91.3616 53.32C92.2949 54.0933 93.3482 54.48 94.5216 54.48C95.5882 54.48 96.4682 54.2 97.1616 53.64C97.8549 53.0533 98.2016 52.0667 98.2016 50.68C98.2016 49.5067 97.9349 48.48 97.4016 47.6C96.8949 46.72 96.2682 45.9733 95.5216 45.36C94.7749 44.7467 93.7482 44.0133 92.4416 43.16C91.1616 42.3333 90.1616 41.6267 89.4416 41.04C88.7482 40.4533 88.1482 39.7467 87.6416 38.92C87.1349 38.0933 86.8816 37.12 86.8816 36C86.8816 34.5867 87.2816 33.4 88.0816 32.44C88.9082 31.4533 89.9616 30.7333 91.2416 30.28C92.5216 29.8 93.8682 29.56 95.2816 29.56C96.2149 29.56 97.1616 29.6533 98.1216 29.84C99.0816 30 99.8549 30.2 100.442 30.44C100.682 30.5467 100.842 30.6667 100.922 30.8C101.002 30.9067 101.042 31.0533 101.042 31.24V37.12C101.042 37.2 100.975 37.2667 100.842 37.32C100.708 37.3467 100.628 37.32 100.602 37.24L100.282 36.48C99.6149 34.8 98.8282 33.3733 97.9216 32.2C97.0416 31.0267 95.8016 30.44 94.2016 30.44C93.1349 30.44 92.2549 30.7467 91.5616 31.36C90.8949 31.9733 90.5616 32.8667 90.5616 34.04ZM105.828 55C105.748 55 105.708 54.92 105.708 54.76C105.708 54.6 105.748 54.52 105.828 54.52C106.681 54.52 107.294 54.4533 107.668 54.32C108.068 54.1867 108.334 53.9333 108.468 53.56C108.601 53.16 108.668 52.56 108.668 51.76V33.24C108.668 32.44 108.601 31.8533 108.468 31.48C108.334 31.1067 108.068 30.8533 107.668 30.72C107.268 30.56 106.654 30.48 105.828 30.48C105.748 30.48 105.708 30.4 105.708 30.24C105.708 30.08 105.748 30 105.828 30H122.788C123.054 30 123.188 30.12 123.188 30.36L123.268 35.68C123.268 35.7333 123.188 35.7733 123.028 35.8C122.894 35.8267 122.814 35.8 122.788 35.72C122.361 34.1733 121.641 33.0267 120.628 32.28C119.614 31.5333 118.281 31.16 116.628 31.16H115.428C114.628 31.16 114.041 31.3333 113.668 31.68C113.294 32.0267 113.108 32.56 113.108 33.28V51.6C113.108 52.3733 113.254 52.9467 113.548 53.32C113.841 53.6933 114.308 53.88 114.948 53.88H116.268C118.348 53.88 120.014 53.4533 121.268 52.6C122.521 51.7467 123.441 50.4267 124.028 48.64C124.028 48.5867 124.081 48.56 124.188 48.56C124.268 48.56 124.334 48.5867 124.387 48.64C124.468 48.6667 124.508 48.6933 124.508 48.72C124.241 50.8 124.108 52.6933 124.108 54.4C124.108 54.6133 124.068 54.7733 123.988 54.88C123.908 54.96 123.748 55 123.508 55H105.828ZM121.268 46.08C121.268 44.9867 120.841 44.1333 119.988 43.52C119.161 42.88 117.961 42.56 116.388 42.56H110.988V41.44H116.428C117.974 41.44 119.161 41.1733 119.988 40.64C120.814 40.1067 121.228 39.36 121.228 38.4C121.228 38.32 121.294 38.28 121.428 38.28C121.588 38.28 121.668 38.32 121.668 38.4L121.628 42L121.668 43.92C121.721 44.8267 121.748 45.5467 121.748 46.08C121.748 46.1333 121.668 46.16 121.508 46.16C121.348 46.16 121.268 46.1333 121.268 46.08ZM138.113 25.76C138.113 25.5733 138.433 25.48 139.073 25.48C139.686 25.48 139.993 25.5733 139.993 25.76V61.16C139.993 61.2667 139.899 61.3467 139.713 61.4C139.526 61.4533 139.313 61.48 139.073 61.48C138.806 61.48 138.579 61.4533 138.393 61.4C138.206 61.3467 138.113 61.2667 138.113 61.16V25.76Z" fill="white" fill-opacity="0.95"/>
<path d="M154.079 46.376C154.431 45.8 154.607 45.36 154.607 45.056C154.607 44.544 154.175 44.288 153.311 44.288C153.279 44.288 153.263 44.24 153.263 44.144C153.263 44.048 153.279 44 153.311 44L154.391 44.024C154.999 44.056 155.535 44.072 155.999 44.072C156.271 44.072 156.599 44.056 156.983 44.024L157.871 44C157.903 44 157.919 44.048 157.919 44.144C157.919 44.24 157.903 44.288 157.871 44.288C157.279 44.288 156.703 44.48 156.143 44.864C155.583 45.232 155.079 45.76 154.631 46.448L150.719 52.376L150.335 52.04L154.079 46.376ZM145.871 45.992C145.455 45.368 145.047 44.928 144.647 44.672C144.247 44.416 143.751 44.288 143.159 44.288C143.111 44.288 143.087 44.24 143.087 44.144C143.087 44.048 143.111 44 143.159 44L144.047 44.024C144.431 44.056 144.719 44.072 144.911 44.072C145.439 44.072 146.087 44.056 146.855 44.024L148.103 44C148.135 44 148.151 44.048 148.151 44.144C148.151 44.24 148.135 44.288 148.103 44.288C147.623 44.288 147.271 44.328 147.047 44.408C146.839 44.472 146.735 44.584 146.735 44.744C146.735 44.84 146.815 45.008 146.975 45.248L151.247 51.392L150.359 52.496L145.871 45.992ZM151.247 51.344V57.056C151.247 57.552 151.295 57.912 151.391 58.136C151.487 58.36 151.679 58.512 151.967 58.592C152.255 58.672 152.719 58.712 153.359 58.712C153.407 58.712 153.431 58.76 153.431 58.856C153.431 58.952 153.407 59 153.359 59C152.879 59 152.503 58.992 152.231 58.976L150.599 58.952L148.967 58.976C148.679 58.992 148.295 59 147.815 59C147.767 59 147.743 58.952 147.743 58.856C147.743 58.76 147.767 58.712 147.815 58.712C148.439 58.712 148.895 58.672 149.183 58.592C149.487 58.512 149.695 58.36 149.807 58.136C149.919 57.896 149.975 57.536 149.975 57.056V51.56L151.247 51.344ZM160.774 59.312C159.862 59.312 159.054 59.088 158.35 58.64C157.646 58.176 157.102 57.56 156.718 56.792C156.334 56.008 156.142 55.16 156.142 54.248C156.142 53.208 156.39 52.328 156.886 51.608C157.398 50.872 158.038 50.328 158.806 49.976C159.59 49.608 160.39 49.424 161.206 49.424C162.134 49.424 162.942 49.656 163.63 50.12C164.334 50.584 164.87 51.2 165.238 51.968C165.622 52.72 165.814 53.52 165.814 54.368C165.814 55.36 165.582 56.232 165.118 56.984C164.67 57.736 164.062 58.312 163.294 58.712C162.526 59.112 161.686 59.312 160.774 59.312ZM161.446 58.88C162.374 58.88 163.102 58.568 163.63 57.944C164.158 57.32 164.422 56.336 164.422 54.992C164.422 54.032 164.254 53.168 163.918 52.4C163.582 51.616 163.11 51 162.502 50.552C161.894 50.104 161.198 49.88 160.414 49.88C159.502 49.88 158.79 50.2 158.278 50.84C157.766 51.464 157.51 52.368 157.51 53.552C157.51 54.512 157.678 55.4 158.014 56.216C158.35 57.016 158.814 57.664 159.406 58.16C159.998 58.64 160.678 58.88 161.446 58.88ZM171.011 59.168C170.227 59.168 169.611 58.92 169.163 58.424C168.731 57.928 168.515 57.2 168.515 56.24V52.52C168.515 51.864 168.459 51.4 168.347 51.128C168.251 50.84 168.075 50.696 167.819 50.696C167.579 50.696 167.291 50.776 166.955 50.936H166.907C166.843 50.936 166.795 50.896 166.763 50.816C166.747 50.736 166.771 50.688 166.835 50.672L169.355 49.544L169.451 49.52C169.483 49.52 169.523 49.536 169.571 49.568C169.619 49.6 169.643 49.64 169.643 49.688V55.52C169.643 56.48 169.811 57.192 170.147 57.656C170.483 58.12 170.987 58.352 171.659 58.352C172.315 58.352 172.971 58.16 173.627 57.776C174.283 57.376 174.859 56.832 175.355 56.144L175.475 56.408C174.723 57.384 173.979 58.088 173.243 58.52C172.523 58.952 171.779 59.168 171.011 59.168ZM176.027 56.48C176.027 57.024 176.091 57.424 176.219 57.68C176.363 57.92 176.595 58.04 176.915 58.04C177.075 58.04 177.267 58.008 177.491 57.944C177.731 57.864 177.987 57.776 178.259 57.68H178.307C178.371 57.68 178.411 57.72 178.427 57.8C178.459 57.864 178.443 57.912 178.379 57.944L175.691 59.192L175.595 59.216C175.451 59.216 175.299 59.04 175.139 58.688C174.995 58.32 174.923 57.856 174.923 57.296V52.52C174.923 51.864 174.867 51.4 174.755 51.128C174.659 50.84 174.475 50.696 174.203 50.696C173.963 50.696 173.675 50.776 173.339 50.936H173.291C173.227 50.936 173.187 50.896 173.171 50.816C173.155 50.736 173.179 50.688 173.243 50.672L175.763 49.544L175.835 49.52C175.883 49.52 175.923 49.536 175.955 49.568C176.003 49.6 176.027 49.64 176.027 49.688V56.48ZM181.697 52.256C182.561 51.168 183.209 50.44 183.641 50.072C184.089 49.704 184.513 49.52 184.913 49.52C185.265 49.52 185.593 49.616 185.897 49.808C186.217 49.984 186.377 50.192 186.377 50.432C186.377 50.592 186.313 50.736 186.185 50.864C186.073 50.992 185.905 51.056 185.681 51.056C185.521 51.056 185.377 51.016 185.249 50.936C185.121 50.84 185.041 50.784 185.009 50.768C184.705 50.528 184.401 50.408 184.097 50.408C183.857 50.408 183.585 50.536 183.281 50.792C182.993 51.048 182.497 51.616 181.793 52.496L181.697 52.256ZM179.561 59C179.513 59 179.489 58.952 179.489 58.856C179.489 58.76 179.513 58.712 179.561 58.712C180.025 58.712 180.361 58.672 180.569 58.592C180.777 58.512 180.921 58.36 181.001 58.136C181.081 57.896 181.121 57.536 181.121 57.056V52.256C181.121 51.696 181.057 51.296 180.929 51.056C180.801 50.816 180.577 50.696 180.257 50.696C180.001 50.696 179.553 50.816 178.913 51.056H178.865C178.801 51.056 178.753 51.024 178.721 50.96C178.705 50.88 178.729 50.824 178.793 50.792L181.457 49.544C181.489 49.528 181.529 49.52 181.577 49.52C181.705 49.52 181.849 49.704 182.009 50.072C182.169 50.424 182.249 50.88 182.249 51.44V57.056C182.249 57.536 182.305 57.896 182.417 58.136C182.529 58.36 182.745 58.512 183.065 58.592C183.401 58.672 183.929 58.712 184.649 58.712C184.697 58.712 184.721 58.76 184.721 58.856C184.721 58.952 184.697 59 184.649 59C184.137 59 183.729 58.992 183.425 58.976L181.697 58.952L180.425 58.976C180.217 58.992 179.929 59 179.561 59ZM197.194 56.96C197.194 57.472 197.266 57.848 197.41 58.088C197.554 58.312 197.826 58.472 198.226 58.568C198.642 58.664 199.298 58.712 200.194 58.712C200.242 58.712 200.266 58.76 200.266 58.856C200.266 58.952 200.242 59 200.194 59C199.538 59 199.026 58.992 198.658 58.976L196.57 58.952L194.986 58.976C194.698 58.992 194.298 59 193.786 59C193.754 59 193.738 58.952 193.738 58.856C193.738 58.76 193.754 58.712 193.786 58.712C194.41 58.712 194.866 58.672 195.154 58.592C195.458 58.512 195.658 58.36 195.754 58.136C195.866 57.896 195.922 57.536 195.922 57.056V45.944C195.922 45.464 195.866 45.112 195.754 44.888C195.658 44.664 195.458 44.512 195.154 44.432C194.866 44.336 194.41 44.288 193.786 44.288C193.754 44.288 193.738 44.24 193.738 44.144C193.738 44.048 193.754 44 193.786 44L194.962 44.024C195.634 44.056 196.162 44.072 196.546 44.072C196.93 44.072 197.37 44.048 197.866 44C199.114 43.952 199.794 43.928 199.906 43.928C201.314 43.928 202.458 44.256 203.338 44.912C204.218 45.552 204.658 46.536 204.658 47.864C204.658 48.936 204.394 49.84 203.866 50.576C203.338 51.296 202.666 51.832 201.85 52.184C201.05 52.536 200.218 52.712 199.354 52.712C198.874 52.712 198.482 52.672 198.178 52.592C198.13 52.592 198.106 52.552 198.106 52.472C198.106 52.424 198.114 52.376 198.13 52.328C198.162 52.28 198.194 52.264 198.226 52.28C198.482 52.344 198.77 52.376 199.09 52.376C200.226 52.376 201.186 52.032 201.97 51.344C202.77 50.656 203.17 49.656 203.17 48.344C203.17 47.496 203.002 46.768 202.666 46.16C202.33 45.536 201.866 45.064 201.274 44.744C200.698 44.408 200.058 44.24 199.354 44.24C198.698 44.24 198.234 44.272 197.962 44.336C197.69 44.4 197.49 44.552 197.362 44.792C197.25 45.016 197.194 45.416 197.194 45.992V56.96ZM210.289 59.288C209.377 59.288 208.601 59.072 207.961 58.64C207.321 58.208 206.833 57.648 206.497 56.96C206.177 56.256 206.017 55.496 206.017 54.68C206.017 53.736 206.241 52.872 206.689 52.088C207.137 51.288 207.737 50.664 208.489 50.216C209.257 49.752 210.089 49.52 210.985 49.52C211.881 49.52 212.553 49.768 213.001 50.264C213.465 50.744 213.697 51.408 213.697 52.256C213.697 52.48 213.673 52.64 213.625 52.736C213.593 52.816 213.521 52.856 213.409 52.856H212.281C212.297 52.744 212.305 52.592 212.305 52.4C212.305 51.6 212.113 51 211.729 50.6C211.361 50.2 210.857 50 210.217 50C209.321 50 208.625 50.336 208.129 51.008C207.633 51.68 207.385 52.616 207.385 53.816C207.385 55.208 207.713 56.344 208.369 57.224C209.025 58.088 209.945 58.52 211.129 58.52C211.625 58.52 212.049 58.456 212.401 58.328C212.753 58.184 213.137 57.976 213.553 57.704H213.577C213.625 57.704 213.665 57.736 213.697 57.8C213.745 57.848 213.753 57.896 213.721 57.944C212.665 58.84 211.521 59.288 210.289 59.288ZM207.049 52.592L212.521 52.496V52.856L207.073 52.88L207.049 52.592ZM218.095 52.256C218.959 51.168 219.607 50.44 220.039 50.072C220.487 49.704 220.911 49.52 221.311 49.52C221.663 49.52 221.991 49.616 222.295 49.808C222.615 49.984 222.775 50.192 222.775 50.432C222.775 50.592 222.711 50.736 222.583 50.864C222.471 50.992 222.303 51.056 222.079 51.056C221.919 51.056 221.775 51.016 221.647 50.936C221.519 50.84 221.439 50.784 221.407 50.768C221.103 50.528 220.799 50.408 220.495 50.408C220.255 50.408 219.983 50.536 219.679 50.792C219.391 51.048 218.895 51.616 218.191 52.496L218.095 52.256ZM215.959 59C215.911 59 215.887 58.952 215.887 58.856C215.887 58.76 215.911 58.712 215.959 58.712C216.423 58.712 216.759 58.672 216.967 58.592C217.175 58.512 217.319 58.36 217.399 58.136C217.479 57.896 217.519 57.536 217.519 57.056V52.256C217.519 51.696 217.455 51.296 217.327 51.056C217.199 50.816 216.975 50.696 216.655 50.696C216.399 50.696 215.951 50.816 215.311 51.056H215.263C215.199 51.056 215.151 51.024 215.119 50.96C215.103 50.88 215.127 50.824 215.191 50.792L217.855 49.544C217.887 49.528 217.927 49.52 217.975 49.52C218.103 49.52 218.247 49.704 218.407 50.072C218.567 50.424 218.647 50.88 218.647 51.44V57.056C218.647 57.536 218.703 57.896 218.815 58.136C218.927 58.36 219.143 58.512 219.463 58.592C219.799 58.672 220.327 58.712 221.047 58.712C221.095 58.712 221.119 58.76 221.119 58.856C221.119 58.952 221.095 59 221.047 59C220.535 59 220.127 58.992 219.823 58.976L218.095 58.952L216.823 58.976C216.615 58.992 216.327 59 215.959 59ZM225.808 51.272C225.808 51.864 225.992 52.328 226.36 52.664C226.728 52.984 227.288 53.328 228.04 53.696C228.584 53.968 229.016 54.208 229.336 54.416C229.656 54.624 229.928 54.896 230.152 55.232C230.376 55.552 230.488 55.944 230.488 56.408C230.488 57.208 230.184 57.888 229.576 58.448C228.984 58.992 228.168 59.264 227.128 59.264C226.28 59.264 225.528 59.016 224.872 58.52C224.776 58.456 224.728 58.36 224.728 58.232L224.68 56.504C224.68 56.456 224.72 56.432 224.8 56.432C224.896 56.416 224.952 56.432 224.968 56.48C225.272 57.28 225.656 57.872 226.12 58.256C226.6 58.624 227.168 58.808 227.824 58.808C228.368 58.808 228.784 58.688 229.072 58.448C229.36 58.208 229.504 57.856 229.504 57.392C229.504 56.928 229.4 56.544 229.192 56.24C229 55.92 228.752 55.664 228.448 55.472C228.16 55.28 227.76 55.064 227.248 54.824C226.72 54.568 226.296 54.344 225.976 54.152C225.672 53.944 225.408 53.672 225.184 53.336C224.976 53 224.872 52.584 224.872 52.088C224.872 51.24 225.192 50.584 225.832 50.12C226.472 49.656 227.224 49.424 228.088 49.424C228.68 49.424 229.248 49.544 229.792 49.784C229.888 49.832 229.944 49.872 229.96 49.904C229.992 49.936 230.008 49.984 230.008 50.048C230.008 50.352 230 50.592 229.984 50.768L229.96 51.704C229.96 51.736 229.912 51.752 229.816 51.752C229.72 51.752 229.672 51.736 229.672 51.704C229.672 51.192 229.408 50.768 228.88 50.432C228.352 50.08 227.792 49.904 227.2 49.904C226.768 49.904 226.424 50.024 226.168 50.264C225.928 50.488 225.808 50.824 225.808 51.272ZM237.133 59.312C236.221 59.312 235.413 59.088 234.709 58.64C234.005 58.176 233.461 57.56 233.077 56.792C232.693 56.008 232.501 55.16 232.501 54.248C232.501 53.208 232.749 52.328 233.245 51.608C233.757 50.872 234.397 50.328 235.165 49.976C235.949 49.608 236.749 49.424 237.565 49.424C238.493 49.424 239.301 49.656 239.989 50.12C240.693 50.584 241.229 51.2 241.597 51.968C241.981 52.72 242.173 53.52 242.173 54.368C242.173 55.36 241.941 56.232 241.477 56.984C241.029 57.736 240.421 58.312 239.653 58.712C238.885 59.112 238.045 59.312 237.133 59.312ZM237.805 58.88C238.733 58.88 239.461 58.568 239.989 57.944C240.517 57.32 240.781 56.336 240.781 54.992C240.781 54.032 240.613 53.168 240.277 52.4C239.941 51.616 239.469 51 238.861 50.552C238.253 50.104 237.557 49.88 236.773 49.88C235.861 49.88 235.149 50.2 234.637 50.84C234.125 51.464 233.869 52.368 233.869 53.552C233.869 54.512 234.037 55.4 234.373 56.216C234.709 57.016 235.173 57.664 235.765 58.16C236.357 58.64 237.037 58.88 237.805 58.88ZM250.611 59C250.563 59 250.539 58.952 250.539 58.856C250.539 58.76 250.563 58.712 250.611 58.712C251.075 58.712 251.411 58.672 251.619 58.592C251.827 58.512 251.971 58.36 252.051 58.136C252.131 57.896 252.171 57.536 252.171 57.056V53.048C252.171 52.072 251.987 51.36 251.619 50.912C251.251 50.464 250.675 50.24 249.891 50.24C249.283 50.24 248.659 50.448 248.019 50.864C247.395 51.264 246.851 51.808 246.387 52.496L246.291 52.208C247.027 51.232 247.739 50.528 248.427 50.096C249.115 49.648 249.819 49.424 250.539 49.424C251.435 49.424 252.115 49.664 252.579 50.144C253.059 50.624 253.299 51.352 253.299 52.328V57.056C253.299 57.536 253.331 57.896 253.395 58.136C253.475 58.36 253.619 58.512 253.827 58.592C254.051 58.672 254.395 58.712 254.859 58.712C254.907 58.712 254.931 58.76 254.931 58.856C254.931 58.952 254.907 59 254.859 59C254.491 59 254.203 58.992 253.995 58.976L252.747 58.952L251.475 58.976C251.267 58.992 250.979 59 250.611 59ZM244.155 59C244.107 59 244.083 58.952 244.083 58.856C244.083 58.76 244.107 58.712 244.155 58.712C244.619 58.712 244.955 58.672 245.163 58.592C245.371 58.512 245.515 58.36 245.595 58.136C245.675 57.896 245.715 57.536 245.715 57.056V52.256C245.715 51.696 245.651 51.296 245.523 51.056C245.395 50.816 245.171 50.696 244.851 50.696C244.595 50.696 244.147 50.816 243.507 51.056H243.459C243.395 51.056 243.347 51.024 243.315 50.96C243.299 50.88 243.323 50.824 243.387 50.792L246.051 49.544C246.083 49.528 246.123 49.52 246.171 49.52C246.299 49.52 246.443 49.704 246.603 50.072C246.763 50.424 246.843 50.88 246.843 51.44V57.056C246.843 57.536 246.875 57.896 246.939 58.136C247.019 58.36 247.163 58.512 247.371 58.592C247.595 58.672 247.939 58.712 248.403 58.712C248.451 58.712 248.475 58.76 248.475 58.856C248.475 58.952 248.451 59 248.403 59C248.035 59 247.747 58.992 247.539 58.976L246.291 58.952L245.019 58.976C244.811 58.992 244.523 59 244.155 59ZM262.914 59.144C262.85 59.176 262.786 59.192 262.722 59.192C262.514 59.192 262.33 59.016 262.17 58.664C262.026 58.312 261.954 57.832 261.954 57.224V52.592C261.954 50.832 261.41 49.952 260.322 49.952C259.778 49.952 259.354 50.128 259.05 50.48C258.746 50.816 258.538 51.216 258.426 51.68C258.362 51.968 258.282 52.192 258.186 52.352C258.106 52.496 257.93 52.568 257.658 52.568C257.434 52.568 257.258 52.504 257.13 52.376C257.002 52.232 256.938 52.072 256.938 51.896C256.938 51.544 257.17 51.184 257.634 50.816C258.114 50.432 258.69 50.12 259.362 49.88C260.034 49.624 260.634 49.496 261.162 49.496C261.802 49.496 262.274 49.704 262.578 50.12C262.898 50.536 263.058 51.12 263.058 51.872V56.408C263.058 57 263.122 57.424 263.25 57.68C263.394 57.936 263.634 58.064 263.97 58.064C264.274 58.064 264.714 57.944 265.29 57.704H265.338C265.402 57.704 265.442 57.744 265.458 57.824C265.474 57.888 265.45 57.936 265.386 57.968L262.914 59.144ZM258.666 59.168C258.106 59.168 257.658 59.008 257.322 58.688C257.002 58.368 256.842 57.984 256.842 57.536C256.842 57.088 257.018 56.688 257.37 56.336C257.722 55.968 258.33 55.624 259.194 55.304L262.194 54.176L262.242 54.488L259.41 55.568C258.946 55.76 258.626 55.968 258.45 56.192C258.274 56.416 258.186 56.68 258.186 56.984C258.186 57.368 258.306 57.696 258.546 57.968C258.786 58.24 259.122 58.376 259.554 58.376C259.906 58.376 260.322 58.24 260.802 57.968L262.41 57.032L262.458 57.32L260.658 58.448C260.258 58.704 259.906 58.888 259.602 59C259.298 59.112 258.986 59.168 258.666 59.168ZM266.441 59C266.393 59 266.369 58.952 266.369 58.856C266.369 58.76 266.393 58.712 266.441 58.712C266.905 58.712 267.241 58.672 267.449 58.592C267.657 58.512 267.801 58.36 267.881 58.136C267.961 57.896 268.001 57.536 268.001 57.056V44.6C268.001 44.008 267.945 43.584 267.833 43.328C267.721 43.072 267.521 42.944 267.233 42.944C266.977 42.944 266.593 43.064 266.081 43.304H266.033C265.969 43.304 265.921 43.264 265.889 43.184C265.873 43.104 265.897 43.056 265.961 43.04L268.913 41.624C268.945 41.608 268.985 41.6 269.033 41.6C269.065 41.6 269.097 41.616 269.129 41.648C269.177 41.68 269.201 41.72 269.201 41.768V57.056C269.201 57.536 269.233 57.888 269.297 58.112C269.377 58.336 269.521 58.496 269.729 58.592C269.953 58.672 270.297 58.712 270.761 58.712C270.809 58.712 270.833 58.76 270.833 58.856C270.833 58.952 270.809 59 270.761 59C270.409 59 270.121 58.992 269.897 58.976L268.601 58.952L267.305 58.976C267.097 58.992 266.809 59 266.441 59ZM280.343 44.552L280.871 44.6L280.655 56.504C280.639 57.336 280.775 57.912 281.063 58.232C281.351 58.552 281.887 58.712 282.671 58.712C282.703 58.712 282.719 58.76 282.719 58.856C282.719 58.952 282.703 59 282.671 59C282.223 59 281.879 58.992 281.639 58.976L280.343 58.952L279.167 58.976C278.959 58.992 278.647 59 278.231 59C278.199 59 278.183 58.952 278.183 58.856C278.183 58.76 278.199 58.712 278.231 58.712C278.903 58.712 279.375 58.552 279.647 58.232C279.935 57.896 280.087 57.32 280.103 56.504L280.343 44.552ZM296.591 58.712C296.639 58.712 296.663 58.76 296.663 58.856C296.663 58.952 296.639 59 296.591 59C296.095 59 295.703 58.992 295.415 58.976L293.807 58.952L292.319 58.976C292.079 58.992 291.743 59 291.311 59C291.279 59 291.263 58.952 291.263 58.856C291.263 58.76 291.279 58.712 291.311 58.712C291.871 58.712 292.279 58.672 292.535 58.592C292.807 58.496 292.983 58.336 293.063 58.112C293.159 57.888 293.191 57.536 293.159 57.056L292.727 45.224L293.423 44.336L287.135 58.832C287.103 58.896 287.039 58.928 286.943 58.928C286.863 58.928 286.791 58.896 286.727 58.832L280.871 45.992C280.615 45.4 280.279 44.968 279.863 44.696C279.463 44.424 278.975 44.288 278.399 44.288C278.367 44.288 278.351 44.24 278.351 44.144C278.351 44.048 278.367 44 278.399 44L279.215 44.024C279.375 44.04 279.583 44.048 279.839 44.048C280.095 44.048 280.311 44.04 280.487 44.024C280.663 44.008 280.799 44 280.895 44C281.119 44 281.295 44.08 281.423 44.24C281.551 44.384 281.743 44.72 281.999 45.248L287.495 57.128L286.871 58.136L292.775 44.6C292.855 44.424 292.959 44.28 293.087 44.168C293.231 44.056 293.367 44 293.495 44C293.559 44 293.663 44.008 293.807 44.024C293.951 44.04 294.151 44.048 294.407 44.048L295.487 44.024C295.647 44.008 295.895 44 296.231 44C296.263 44 296.279 44.048 296.279 44.144C296.279 44.24 296.263 44.288 296.231 44.288C295.399 44.288 294.807 44.4 294.455 44.624C294.119 44.832 293.959 45.256 293.975 45.896L294.431 57.056C294.447 57.552 294.503 57.912 294.599 58.136C294.711 58.36 294.911 58.512 295.199 58.592C295.503 58.672 295.967 58.712 296.591 58.712ZM301.465 59.168C300.681 59.168 300.065 58.92 299.617 58.424C299.185 57.928 298.969 57.2 298.969 56.24V52.52C298.969 51.864 298.913 51.4 298.801 51.128C298.705 50.84 298.529 50.696 298.273 50.696C298.033 50.696 297.745 50.776 297.409 50.936H297.361C297.297 50.936 297.249 50.896 297.217 50.816C297.201 50.736 297.225 50.688 297.289 50.672L299.809 49.544L299.905 49.52C299.937 49.52 299.977 49.536 300.025 49.568C300.073 49.6 300.097 49.64 300.097 49.688V55.52C300.097 56.48 300.265 57.192 300.601 57.656C300.937 58.12 301.441 58.352 302.113 58.352C302.769 58.352 303.425 58.16 304.081 57.776C304.737 57.376 305.313 56.832 305.809 56.144L305.929 56.408C305.177 57.384 304.433 58.088 303.697 58.52C302.977 58.952 302.233 59.168 301.465 59.168ZM306.481 56.48C306.481 57.024 306.545 57.424 306.673 57.68C306.817 57.92 307.049 58.04 307.369 58.04C307.529 58.04 307.721 58.008 307.945 57.944C308.185 57.864 308.441 57.776 308.713 57.68H308.761C308.825 57.68 308.865 57.72 308.881 57.8C308.913 57.864 308.897 57.912 308.833 57.944L306.145 59.192L306.049 59.216C305.905 59.216 305.753 59.04 305.593 58.688C305.449 58.32 305.377 57.856 305.377 57.296V52.52C305.377 51.864 305.321 51.4 305.209 51.128C305.113 50.84 304.929 50.696 304.657 50.696C304.417 50.696 304.129 50.776 303.793 50.936H303.745C303.681 50.936 303.641 50.896 303.625 50.816C303.609 50.736 303.633 50.688 303.697 50.672L306.217 49.544L306.289 49.52C306.337 49.52 306.377 49.536 306.409 49.568C306.457 49.6 306.481 49.64 306.481 49.688V56.48ZM311.214 51.272C311.214 51.864 311.398 52.328 311.766 52.664C312.134 52.984 312.694 53.328 313.446 53.696C313.99 53.968 314.422 54.208 314.742 54.416C315.062 54.624 315.334 54.896 315.558 55.232C315.782 55.552 315.894 55.944 315.894 56.408C315.894 57.208 315.59 57.888 314.982 58.448C314.39 58.992 313.574 59.264 312.534 59.264C311.686 59.264 310.934 59.016 310.278 58.52C310.182 58.456 310.134 58.36 310.134 58.232L310.086 56.504C310.086 56.456 310.126 56.432 310.206 56.432C310.302 56.416 310.358 56.432 310.374 56.48C310.678 57.28 311.062 57.872 311.526 58.256C312.006 58.624 312.574 58.808 313.23 58.808C313.774 58.808 314.19 58.688 314.478 58.448C314.766 58.208 314.91 57.856 314.91 57.392C314.91 56.928 314.806 56.544 314.598 56.24C314.406 55.92 314.158 55.664 313.854 55.472C313.566 55.28 313.166 55.064 312.654 54.824C312.126 54.568 311.702 54.344 311.382 54.152C311.078 53.944 310.814 53.672 310.59 53.336C310.382 53 310.278 52.584 310.278 52.088C310.278 51.24 310.598 50.584 311.238 50.12C311.878 49.656 312.63 49.424 313.494 49.424C314.086 49.424 314.654 49.544 315.198 49.784C315.294 49.832 315.35 49.872 315.366 49.904C315.398 49.936 315.414 49.984 315.414 50.048C315.414 50.352 315.406 50.592 315.39 50.768L315.366 51.704C315.366 51.736 315.318 51.752 315.222 51.752C315.126 51.752 315.078 51.736 315.078 51.704C315.078 51.192 314.814 50.768 314.286 50.432C313.758 50.08 313.198 49.904 312.606 49.904C312.174 49.904 311.83 50.024 311.574 50.264C311.334 50.488 311.214 50.824 311.214 51.272ZM322.18 59.288C321.268 59.288 320.492 59.072 319.852 58.64C319.212 58.208 318.724 57.648 318.388 56.96C318.068 56.256 317.908 55.496 317.908 54.68C317.908 53.736 318.132 52.872 318.58 52.088C319.028 51.288 319.628 50.664 320.38 50.216C321.148 49.752 321.98 49.52 322.876 49.52C323.772 49.52 324.444 49.768 324.892 50.264C325.356 50.744 325.588 51.408 325.588 52.256C325.588 52.48 325.564 52.64 325.516 52.736C325.484 52.816 325.412 52.856 325.3 52.856H324.172C324.188 52.744 324.196 52.592 324.196 52.4C324.196 51.6 324.004 51 323.62 50.6C323.252 50.2 322.748 50 322.108 50C321.212 50 320.516 50.336 320.02 51.008C319.524 51.68 319.276 52.616 319.276 53.816C319.276 55.208 319.604 56.344 320.26 57.224C320.916 58.088 321.836 58.52 323.02 58.52C323.516 58.52 323.94 58.456 324.292 58.328C324.644 58.184 325.028 57.976 325.444 57.704H325.468C325.516 57.704 325.556 57.736 325.588 57.8C325.636 57.848 325.644 57.896 325.612 57.944C324.556 58.84 323.412 59.288 322.18 59.288ZM318.94 52.592L324.412 52.496V52.856L318.964 52.88L318.94 52.592ZM331.066 59.168C330.282 59.168 329.666 58.92 329.218 58.424C328.786 57.928 328.57 57.2 328.57 56.24V52.52C328.57 51.864 328.514 51.4 328.402 51.128C328.306 50.84 328.13 50.696 327.874 50.696C327.634 50.696 327.346 50.776 327.01 50.936H326.962C326.898 50.936 326.85 50.896 326.818 50.816C326.802 50.736 326.826 50.688 326.89 50.672L329.41 49.544L329.506 49.52C329.538 49.52 329.578 49.536 329.626 49.568C329.674 49.6 329.698 49.64 329.698 49.688V55.52C329.698 56.48 329.866 57.192 330.202 57.656C330.538 58.12 331.042 58.352 331.714 58.352C332.37 58.352 333.026 58.16 333.682 57.776C334.338 57.376 334.914 56.832 335.41 56.144L335.53 56.408C334.778 57.384 334.034 58.088 333.298 58.52C332.578 58.952 331.834 59.168 331.066 59.168ZM336.082 56.48C336.082 57.024 336.146 57.424 336.274 57.68C336.418 57.92 336.65 58.04 336.97 58.04C337.13 58.04 337.322 58.008 337.546 57.944C337.786 57.864 338.042 57.776 338.314 57.68H338.362C338.426 57.68 338.466 57.72 338.482 57.8C338.514 57.864 338.498 57.912 338.434 57.944L335.746 59.192L335.65 59.216C335.506 59.216 335.354 59.04 335.194 58.688C335.05 58.32 334.978 57.856 334.978 57.296V52.52C334.978 51.864 334.922 51.4 334.81 51.128C334.714 50.84 334.53 50.696 334.258 50.696C334.018 50.696 333.73 50.776 333.394 50.936H333.346C333.282 50.936 333.242 50.896 333.226 50.816C333.21 50.736 333.234 50.688 333.298 50.672L335.818 49.544L335.89 49.52C335.938 49.52 335.978 49.536 336.01 49.568C336.058 49.6 336.082 49.64 336.082 49.688V56.48ZM351.952 59C351.92 59 351.904 58.952 351.904 58.856C351.904 58.76 351.92 58.712 351.952 58.712C352.416 58.712 352.752 58.672 352.96 58.592C353.184 58.512 353.336 58.36 353.416 58.136C353.496 57.896 353.536 57.536 353.536 57.056V53.144C353.536 52.168 353.36 51.448 353.008 50.984C352.672 50.52 352.136 50.288 351.4 50.288C350.824 50.288 350.232 50.496 349.624 50.912C349.016 51.312 348.48 51.856 348.016 52.544L347.92 52.256C348.64 51.28 349.328 50.576 349.984 50.144C350.64 49.712 351.328 49.496 352.048 49.496C352.896 49.496 353.544 49.736 353.992 50.216C354.44 50.696 354.664 51.424 354.664 52.4V57.056C354.664 57.536 354.696 57.896 354.76 58.136C354.84 58.36 354.984 58.512 355.192 58.592C355.416 58.672 355.76 58.712 356.224 58.712C356.272 58.712 356.296 58.76 356.296 58.856C356.296 58.952 356.272 59 356.224 59C355.856 59 355.568 58.992 355.36 58.976L354.088 58.952L352.84 58.976C352.616 58.992 352.32 59 351.952 59ZM345.784 59C345.736 59 345.712 58.952 345.712 58.856C345.712 58.76 345.736 58.712 345.784 58.712C346.248 58.712 346.584 58.672 346.792 58.592C347 58.512 347.144 58.36 347.224 58.136C347.304 57.896 347.344 57.536 347.344 57.056V53.144C347.344 52.168 347.168 51.448 346.816 50.984C346.48 50.52 345.952 50.288 345.232 50.288C344.64 50.288 344.04 50.496 343.432 50.912C342.84 51.312 342.312 51.856 341.848 52.544L341.752 52.256C342.456 51.28 343.136 50.576 343.792 50.144C344.464 49.712 345.152 49.496 345.856 49.496C346.704 49.496 347.352 49.736 347.8 50.216C348.248 50.696 348.472 51.424 348.472 52.4V57.056C348.472 57.536 348.512 57.896 348.592 58.136C348.672 58.36 348.816 58.512 349.024 58.592C349.248 58.672 349.592 58.712 350.056 58.712C350.088 58.712 350.104 58.76 350.104 58.856C350.104 58.952 350.088 59 350.056 59C349.688 59 349.392 58.992 349.168 58.976L347.92 58.952L346.648 58.976C346.44 58.992 346.152 59 345.784 59ZM339.616 59C339.568 59 339.544 58.952 339.544 58.856C339.544 58.76 339.568 58.712 339.616 58.712C340.08 58.712 340.416 58.672 340.624 58.592C340.832 58.512 340.976 58.36 341.056 58.136C341.136 57.896 341.176 57.536 341.176 57.056V52.256C341.176 51.696 341.112 51.296 340.984 51.056C340.856 50.816 340.632 50.696 340.312 50.696C340.056 50.696 339.608 50.816 338.968 51.056H338.92C338.856 51.056 338.808 51.024 338.776 50.96C338.76 50.88 338.784 50.824 338.848 50.792L341.512 49.544C341.544 49.528 341.584 49.52 341.632 49.52C341.76 49.52 341.904 49.704 342.064 50.072C342.224 50.424 342.304 50.88 342.304 51.44V57.056C342.304 57.536 342.336 57.896 342.4 58.136C342.48 58.36 342.624 58.512 342.832 58.592C343.056 58.672 343.4 58.712 343.864 58.712C343.912 58.712 343.936 58.76 343.936 58.856C343.936 58.952 343.912 59 343.864 59C343.496 59 343.208 58.992 343 58.976L341.752 58.952L340.48 58.976C340.272 58.992 339.984 59 339.616 59ZM372.091 59.288C370.347 59.288 368.827 58.936 367.531 58.232C366.251 57.512 365.267 56.552 364.579 55.352C363.891 54.136 363.547 52.808 363.547 51.368C363.547 49.816 363.931 48.464 364.699 47.312C365.483 46.16 366.547 45.28 367.891 44.672C369.251 44.048 370.771 43.736 372.451 43.736C373.331 43.736 374.139 43.824 374.875 44C375.611 44.176 376.235 44.424 376.747 44.744C376.859 44.808 376.923 44.864 376.939 44.912C376.955 44.96 376.971 45.08 376.987 45.272L377.275 47.96C377.275 48.008 377.227 48.04 377.131 48.056C377.051 48.072 377.003 48.056 376.987 48.008C376.635 46.68 376.075 45.696 375.307 45.056C374.555 44.416 373.491 44.096 372.115 44.096C370.787 44.096 369.595 44.384 368.539 44.96C367.483 45.52 366.651 46.328 366.043 47.384C365.435 48.424 365.131 49.648 365.131 51.056C365.131 52.384 365.403 53.648 365.947 54.848C366.507 56.048 367.355 57.032 368.491 57.8C369.643 58.568 371.059 58.952 372.739 58.952C373.923 58.952 374.755 58.728 375.235 58.28C375.731 57.816 375.979 57.056 375.979 56C375.979 55.168 375.923 54.592 375.811 54.272C375.699 53.936 375.459 53.712 375.091 53.6C374.723 53.488 374.083 53.432 373.171 53.432C373.075 53.432 373.027 53.368 373.027 53.24C373.027 53.192 373.035 53.152 373.051 53.12C373.083 53.072 373.115 53.048 373.147 53.048C374.379 53.128 375.371 53.168 376.123 53.168C376.843 53.168 377.611 53.144 378.427 53.096C378.459 53.096 378.483 53.12 378.499 53.168C378.531 53.2 378.547 53.232 378.547 53.264C378.547 53.376 378.507 53.432 378.427 53.432C378.011 53.416 377.715 53.472 377.539 53.6C377.363 53.712 377.251 53.952 377.203 54.32C377.155 54.688 377.131 55.328 377.131 56.24C377.131 56.96 377.155 57.472 377.203 57.776C377.267 58.08 377.299 58.272 377.299 58.352C377.299 58.448 377.283 58.512 377.251 58.544C377.219 58.576 377.147 58.608 377.035 58.64C375.099 59.072 373.451 59.288 372.091 59.288ZM383.707 59.168C382.923 59.168 382.307 58.92 381.859 58.424C381.427 57.928 381.211 57.2 381.211 56.24V52.52C381.211 51.864 381.155 51.4 381.043 51.128C380.947 50.84 380.771 50.696 380.515 50.696C380.275 50.696 379.987 50.776 379.651 50.936H379.603C379.539 50.936 379.491 50.896 379.459 50.816C379.443 50.736 379.467 50.688 379.531 50.672L382.051 49.544L382.147 49.52C382.179 49.52 382.219 49.536 382.267 49.568C382.315 49.6 382.339 49.64 382.339 49.688V55.52C382.339 56.48 382.507 57.192 382.843 57.656C383.179 58.12 383.683 58.352 384.355 58.352C385.011 58.352 385.667 58.16 386.323 57.776C386.979 57.376 387.555 56.832 388.051 56.144L388.171 56.408C387.419 57.384 386.675 58.088 385.939 58.52C385.219 58.952 384.475 59.168 383.707 59.168ZM388.723 56.48C388.723 57.024 388.787 57.424 388.915 57.68C389.059 57.92 389.291 58.04 389.611 58.04C389.771 58.04 389.963 58.008 390.187 57.944C390.427 57.864 390.683 57.776 390.955 57.68H391.003C391.067 57.68 391.107 57.72 391.123 57.8C391.155 57.864 391.139 57.912 391.075 57.944L388.387 59.192L388.291 59.216C388.147 59.216 387.995 59.04 387.835 58.688C387.691 58.32 387.619 57.856 387.619 57.296V52.52C387.619 51.864 387.563 51.4 387.451 51.128C387.355 50.84 387.171 50.696 386.899 50.696C386.659 50.696 386.371 50.776 386.035 50.936H385.987C385.923 50.936 385.883 50.896 385.867 50.816C385.851 50.736 385.875 50.688 385.939 50.672L388.459 49.544L388.531 49.52C388.579 49.52 388.619 49.536 388.651 49.568C388.699 49.6 388.723 49.64 388.723 49.688V56.48ZM392.52 59C392.488 59 392.472 58.952 392.472 58.856C392.472 58.76 392.488 58.712 392.52 58.712C392.984 58.712 393.32 58.672 393.528 58.592C393.752 58.512 393.904 58.36 393.984 58.136C394.064 57.896 394.104 57.536 394.104 57.056V52.52C394.104 51.928 394.04 51.504 393.912 51.248C393.8 50.992 393.6 50.864 393.312 50.864C393.008 50.864 392.624 50.984 392.16 51.224H392.136C392.072 51.224 392.024 51.184 391.992 51.104C391.96 51.024 391.976 50.968 392.04 50.936L395.016 49.544L395.112 49.52C395.144 49.52 395.176 49.536 395.208 49.568C395.256 49.6 395.28 49.64 395.28 49.688C395.28 49.784 395.272 50.104 395.256 50.648C395.24 51.176 395.232 51.792 395.232 52.496V57.056C395.232 57.536 395.264 57.896 395.328 58.136C395.408 58.36 395.552 58.512 395.76 58.592C395.984 58.672 396.328 58.712 396.792 58.712C396.84 58.712 396.864 58.76 396.864 58.856C396.864 58.952 396.84 59 396.792 59C396.424 59 396.136 58.992 395.928 58.976L394.656 58.952L393.408 58.976C393.184 58.992 392.888 59 392.52 59ZM394.464 46.616C394.16 46.616 393.92 46.536 393.744 46.376C393.584 46.216 393.504 45.992 393.504 45.704C393.504 45.416 393.584 45.192 393.744 45.032C393.92 44.872 394.16 44.792 394.464 44.792C394.752 44.792 394.976 44.872 395.136 45.032C395.296 45.192 395.376 45.416 395.376 45.704C395.376 45.992 395.296 46.216 395.136 46.376C394.976 46.536 394.752 46.616 394.464 46.616ZM402.394 59.312C401.722 59.312 401.098 59.12 400.522 58.736C399.962 58.352 399.506 57.816 399.154 57.128C398.818 56.424 398.65 55.632 398.65 54.752C398.65 53.632 398.93 52.672 399.49 51.872C400.05 51.056 400.754 50.448 401.602 50.048C402.45 49.632 403.29 49.424 404.122 49.424C405.21 49.424 406.186 49.808 407.05 50.576L406.834 52.112C406.37 51.408 405.874 50.864 405.346 50.48C404.834 50.08 404.186 49.88 403.402 49.88C402.362 49.88 401.53 50.248 400.906 50.984C400.282 51.72 399.97 52.744 399.97 54.056C399.97 54.936 400.114 55.712 400.402 56.384C400.69 57.056 401.082 57.584 401.578 57.968C402.074 58.336 402.626 58.52 403.234 58.52C403.906 58.52 404.522 58.336 405.082 57.968C405.642 57.6 406.226 57.08 406.834 56.408L407.026 56.576C406.29 57.408 405.57 58.072 404.866 58.568C404.162 59.064 403.338 59.312 402.394 59.312ZM407.65 56.408C407.65 57 407.714 57.424 407.842 57.68C407.986 57.936 408.226 58.064 408.562 58.064C409.058 58.064 409.498 57.944 409.882 57.704L409.93 57.68C409.994 57.68 410.034 57.72 410.05 57.8C410.082 57.88 410.066 57.936 410.002 57.968L407.53 59.144C407.466 59.176 407.402 59.192 407.338 59.192C407.114 59.192 406.922 59.008 406.762 58.64C406.602 58.256 406.522 57.728 406.522 57.056V44.624C406.522 44.032 406.458 43.608 406.33 43.352C406.218 43.096 406.01 42.968 405.706 42.968C405.578 42.968 405.41 43.008 405.202 43.088C405.01 43.152 404.794 43.232 404.554 43.328H404.506C404.442 43.328 404.402 43.296 404.386 43.232C404.37 43.152 404.386 43.096 404.434 43.064L407.362 41.624C407.394 41.608 407.434 41.6 407.482 41.6C407.514 41.6 407.546 41.616 407.578 41.648C407.626 41.68 407.65 41.72 407.65 41.768V56.408ZM415.226 59.288C414.314 59.288 413.538 59.072 412.898 58.64C412.258 58.208 411.77 57.648 411.434 56.96C411.114 56.256 410.954 55.496 410.954 54.68C410.954 53.736 411.178 52.872 411.626 52.088C412.074 51.288 412.674 50.664 413.426 50.216C414.194 49.752 415.026 49.52 415.922 49.52C416.818 49.52 417.49 49.768 417.938 50.264C418.402 50.744 418.634 51.408 418.634 52.256C418.634 52.48 418.61 52.64 418.562 52.736C418.53 52.816 418.458 52.856 418.346 52.856H417.218C417.234 52.744 417.242 52.592 417.242 52.4C417.242 51.6 417.05 51 416.666 50.6C416.298 50.2 415.794 50 415.154 50C414.258 50 413.562 50.336 413.066 51.008C412.57 51.68 412.322 52.616 412.322 53.816C412.322 55.208 412.65 56.344 413.306 57.224C413.962 58.088 414.882 58.52 416.066 58.52C416.562 58.52 416.986 58.456 417.338 58.328C417.69 58.184 418.074 57.976 418.49 57.704H418.514C418.562 57.704 418.602 57.736 418.634 57.8C418.682 57.848 418.69 57.896 418.658 57.944C417.602 58.84 416.458 59.288 415.226 59.288ZM411.986 52.592L417.458 52.496V52.856L412.01 52.88L411.986 52.592Z" fill="white" fill-opacity="0.95"/>
<defs>
<clipPath id="clip0_130_9">
<rect width="70" height="70" fill="white" transform="translate(30 -6) rotate(30)"/>
</clipPath>
</defs>
</svg>
